<?xml version="1.0" standalone="no"?>
<!DOCTYPE svg PUBLIC "-//W3C//DTD SVG 20010904//EN"
 "http://www.w3.org/TR/2001/REC-SVG-20010904/DTD/svg10.dtd">
<svg version="1.0" xmlns="http://www.w3.org/2000/svg"
 width="512.000000pt" height="512.000000pt" viewBox="0 0 512.000000 512.000000"
 preserveAspectRatio="xMidYMid meet">

<g transform="translate(0.000000,512.000000) scale(0.100000,-0.100000)"
fill="#000000" stroke="none">
<path d="M2420 5015 l0 -105 -100 0 -100 0 0 -125 0 -125 100 0 100 0 0 -110
c0 -96 -2 -111 -17 -117 -107 -36 -220 -114 -277 -191 -46 -63 -92 -157 -101
-205 -8 -39 -28 -57 -66 -57 -12 0 -39 -17 -60 -39 -37 -37 -39 -42 -39 -101
0 -59 2 -64 38 -100 33 -34 46 -39 99 -45 l61 -7 26 -59 c65 -150 104 -361
113 -601 l6 -178 -57 0 c-109 0 -166 -50 -166 -145 0 -61 28 -112 70 -128 17
-6 30 -14 30 -17 0 -3 -13 -11 -30 -17 -64 -24 -93 -140 -51 -209 21 -34 75
-64 116 -64 l28 0 -8 -92 c-24 -315 -140 -659 -328 -976 -67 -112 -97 -194
-97 -262 0 -43 22 -132 44 -183 l16 -37 -30 0 c-38 0 -77 -19 -110 -55 -23
-25 -25 -34 -28 -148 -2 -109 -1 -126 18 -155 11 -18 34 -41 50 -50 l30 -17 0
-147 0 -148 860 0 860 0 0 149 0 149 31 12 c56 24 69 59 69 194 0 103 -3 123
-21 153 -24 38 -65 63 -105 63 -29 0 -29 0 2 80 13 32 18 73 19 140 0 107 -10
133 -121 320 -163 272 -276 621 -299 916 l-7 91 35 7 c43 8 93 62 102 109 10
50 -11 112 -46 141 -17 14 -37 26 -45 26 -8 0 -14 5 -14 10 0 6 7 10 16 10 9
0 31 15 49 33 46 46 55 109 26 169 -26 54 -52 71 -121 78 l-55 5 1 160 c2 213
33 405 95 573 31 85 45 100 97 108 146 22 161 245 19 282 -26 7 -32 17 -56 87
-59 175 -192 310 -358 362 l-53 17 0 108 0 108 105 0 105 0 0 125 0 125 -105
0 -105 0 0 105 0 105 -130 0 -130 0 0 -105z"/>
</g>
</svg>
